<svg xmlns="http://www.w3.org/2000/svg" width="20" height="20" viewBox="0 0 20 20">
  <path d="m19.5 18.1c-0.1 0.1-0.4 0.5-0.4 0.7-0.1 0.3-0.2 0.5-0.4 0.5-0.1 0.1-0.3 0.2-0.3 0.2 0.1 0.2-0.3 0.3-2.2 0.5-1.8 0.2-3 0.1-4.1-0.3-0.3-0.1-1-0.2-1.3-0.2-0.3 0-2.7-0.1-5-0.3-3.9-0.3-4.4-0.3-4.7-0.6-0.2-0.2-0.3-0.5-0.3-0.7 0-0.5 0.6-1.2 1-1.1 0.4 0 0.8-0.6 0.8-1.2-0.1-0.2-0.1-0.5-0.2-0.6-0.3-0.4 0.1-0.4 0.6-0.1 0.5 0.3 0.6 0.3 1.4 0.2 0.8-0.2 1-0.3 1-0.5 0.1-0.2 0-0.5 0.1-0.8 0.1-0.3-0.1-0.6-0.2-0.6-0.1-0.1-0.1-0.3-0.1-0.6 0.1-0.3 0.1-0.7-0.1-0.9C4.9 11.5 5 11 4.9 10.7 5 10 4.6 8 4.3 7.7 4.2 7.5 4.2 7.4 4.4 7.3 4.6 7.2 4.8 6.9 4.9 6.4L5.1 5.7 4.2 5.7C3.4 5.7 3.3 5.6 3.6 5.4 3.9 5 3.3 5.1 2.7 5.4 2.3 5.7 2.1 5.8 2 6.1 2 6.5 1.9 6.5 1.7 6.1 1.6 5.9 1.4 5.8 0.7 5.8 0 5.8 0 5.8 0 5.5 0.1 5.3 0.2 5.1 0.2 5.1 0.4 5 0.4 4.8 0.5 4.6 0.5 4.4 0.9 3.9 1.3 3.4 1.6 2.9 2 2.4 2 2.3 2 2.2 2.2 2 2.5 1.8 3 1.5 3.2 0.8 2.8 1 2.4 1 2.4 0.8 2.7 0.7c0.1-0.1 0.3 0 0.4 0.1 0.2 0.2 0.4 0 0.6-0.4 0.1-0.3 2.1-0.5 3-0.4 0.5 0.1 1.1 0.2 1.2 0.3 0.2 0.2 0.4 0.2 1 0.1 0.5-0.1 1.3 0 1.8-0.1 0.6 0 1.3 0 1.5-0.1 0.6-0.2 0.5 0.1-0.2 0.6-0.6 0.4-0.6 0.5-0.7 1-0.1 0.3 0 0.7 0.1 0.8 0.1 0.1 0.1 0.3 0.1 0.4 0 0.1 0.1 0.6 0.4 1.2 0.2 0.5 0.3 1 0.2 1-0.1 0 0 0.3 0.2 0.6 0.1 0.3 0.4 0.7 0.4 0.8 0 0.1 0.1 0.2 0.1 0.2 0.1 0 0.1-0.1 0.2-0.2 0-0.1 0.1-0.3 0.2-0.4 0.1-0.1 0.1-0.2 0-0.4-0.1-0.2-0.1-0.3 0-0.3 0.1 0 0-0.1 0.1-0.2-0.1-0.1 0-0.5 0.1-0.8 0.2-0.7 0.4-0.7 0.6 0 0 0.3 0.2 0.5 0.4 0.5 0.1 0 0.4 0.2 0.6 0.4l0.3 0.4-0.3 0c-0.2 0-0.3 0-0.2 0.2 0.1 0.1 0.1 0.2-0.1 0.2-0.4 0.1 0 0.4 0.4 0.5 0.2 0 0.3 0.1 0.3 0.1 0 0.1 0 0.3 0.1 0.5 0.2 0.5 0.6 1.6 0.7 2 0.1 0.2 0.1 0.3 0.5 0.3 0.2 0 0.4 0 0.4 0.1 0 0.1 0.1 0.2 0.2 0.2 0.1 0 0.2 0.1 0.2 0.2 0 0.1-0.2 0.2-0.5 0.1-0.4-0.1-0.7 0.1-0.4 0.3 0.1 0 0 0.1-0.1 0.1-0.3 0-0.5 0.3-0.2 0.4 0.1 0 0.2 0.2 0.1 0.5-0.1 0.5-0.6 0.4-0.5-0.2 0-0.3-0.1-0.4-0.3-0.5-0.4-0.1-0.5 0.3-0.4 1 0.1 0.4 0.3 0.5 0.7 0.5 0.2 0 0.4 0.1 0.4 0.2 0 0.1 0.1 0.2 0.2 0.2 0.1 0 0.2 0.1 0.3 0.3 0.1 0.2 0.1 0.4 0.3 0.4 0.2 0.1 0.2 0.2 0.1 0.5-0.1 0.2-0.2 0.6-0.1 0.8 0.1 0.2 0 0.3-0.2 0.4-0.1 0.1-0.3 0-0.3-0.1-0.1-0.1-0.2-0.2-0.3-0.2-0.2 0-0.2 0-0.1 0.2 0.1 0.1 0.1 0.5 0 1l-0.2 0.8 0.5 0.1c0.8 0.1 1.1-0.2 1.2-0.8 0.1-0.3 0-0.6-0.1-0.6-0.1 0 0-0.3 0-0.6 0.2-0.7 0.2-1.2 0-1.6-0.1-0.3-0.1-0.3 0.1-0.3 0.2 0 0.9 1.5 0.7 1.9 0 0.1 0 0.4 0.2 0.6 0.1 0.2 0.2 0.5 0.2 0.7-0.1 0.2 0 0.4 0.1 0.5 0.2 0.2 0.4 0 0.4-0.3-0.1-0.2 0.1-0.2 0.2-0.2 0.1 0.1 0.2 0.1 0.3 0.1 0 0 0.1 0.1 0.1 0.2 0 0.1 0 0.3 0.1 0.3 0.1 0.1 0.2 0.2 0.1 0.4-0.1 0.2 0 0.4 0 0.5 0.1 0.1 0 0.3-0.2 0.4zm-4.2-7.9c-0.1 0-0.2 0.1-0.2 0.2 0 0.1 0.1 0.2 0.2 0.2 0.1 0 0.1-0.1 0.2-0.2 0-0.1-0.1-0.2-0.2-0.2zM15.1 9c-0.1 0.1-0.1 0.1 0.1 0.1 0.1 0 0.2 0 0.2-0.1 0-0.1-0.1-0.1-0.2 0zM8.6 0.8C8.5 0.7 8.3 0.8 8.1 0.8 7.7 0.9 7.5 1.1 7.2 1.6 7 1.9 6.8 2.2 6.9 2.2 7 2.2 7 2.1 7.2 2.1 7.2 2 7.6 1.7 8 1.6 8.7 1.3 8.9 1.1 8.7 1ZM19.7 14.8c-0.1 0.1-0.1 0-0.2-0.1 0-0.1 0.1-0.2 0.2-0.2 0.2 0 0.2 0.1 0.1 0.2zm-0.4 1.1c-0.1 0-0.1-0.1-0.2-0.2 0-0.1 0.1-0.2 0.2-0.2 0.1 0 0.2 0.1 0.2 0.2 0 0.1-0.2 0.2-0.2 0.2zm0.1-3.9c-0.1-0.1-0.3-0.1-0.3-0.1-0.1 0-0.1-0.1-0.1-0.2 0.1-0.2 0.3-0.2 0.4 0.1 0.2 0.2 0.1 0.3-0.1 0.2zm0-1.3c-0.1 0-0.1-0.1-0.1-0.2 0-0.1 0.1-0.1 0.1-0.1 0.1 0.1 0.1 0.1 0.1 0.2 0 0-0.1 0.1-0.1 0.1zm-0.1-0.5c-0.1 0-0.1-0.1-0.2-0.2 0-0.1 0.1-0.2 0.2-0.2 0.1 0 0.2 0.1 0.2 0.2 0 0.1-0.2 0.2-0.2 0.2zM17.4 12c-0.1-0.1-0.1-0.3-0.1-0.4 0-0.1 0.1-0.1 0.2-0.1 0.1 0 0.2 0.2 0.1 0.4-0.1 0.3-0.1 0.3-0.2 0.1zM17.4 9.5c-0.2 0-0.6-0.7-0.5-0.8 0.1-0.1 0.7 0.4 0.6 0.6 0 0.1 0 0.1-0.1 0.1zM17 5.6c-0.1 0-0.1-0.1-0.2-0.2 0-0.1 0-0.1 0.1-0.1 0.2 0.1 0.3 0.2 0.1 0.2z" stroke-width="0.1" stroke="none"/>
</svg>
