<svg xmlns="http://www.w3.org/2000/svg" width="20" height="20" viewBox="0 0 20 20">
<path style="fill:#000000;stroke-width:0.06701421" d="M12.501474 19.87963000000002c-0.294863 -0.0675 -0.724591 -0.14368 -0.954952 -0.16952 -0.230362 -0.0258 -0.418839 -0.0754 -0.418839 -0.1102 0 -0.0347 -0.03176 -0.0435 -0.07058 -0.0196 -0.03881 0.0239 -0.129283 -0.0241 -0.201042 -0.10682 -0.07176 -0.0828 -0.130472 -0.11568 -0.130472 -0.0731 0 0.0435 -0.101799 0.0773 -0.233274 0.0773 -0.191633 0 -0.240623 -0.0293 -0.27446 -0.1641 -0.03597 -0.14334 -0.05787 -0.15394 -0.173043 -0.0838 -0.138748 0.0845 -0.2151768 0.0211 -0.5497701 -0.45677 -0.079958 -0.11418 -0.1678403 -0.16697 -0.2445349 -0.14691 -0.087192 0.0228 -0.1296901 -0.0166 -0.1563988 -0.14495 -0.020169 -0.097 -0.1275848 -0.23602 -0.2386933 -0.30906 -0.160742 -0.1057 -0.200334 -0.17756 -0.193784 -0.35182 0.00836 -0.2211 0.080884 -0.28965 0.1431784 -0.13524 0.018587 0.0462 0.039671 -0.0369 0.046864 -0.1843 0.00726 -0.14743 0.026845 -0.21529 0.04371 -0.15078 0.016855 0.0645 0.07367 0.11729 0.1262564 0.11729 0.052586 0 0.096674 0.0376 0.097988 0.0838 0.00129 0.0461 0.045471 0.009 0.098147 -0.0838l0.095779 -0.16754 0.00438 0.16754c0.00388 0.14763 0.012616 0.15344 0.073481 0.0488 0.037979 -0.0652 0.048984 -0.18191 0.024427 -0.25924 -0.032138 -0.10121 -0.019223 -0.13225 0.046168 -0.11081 0.049929 0.0164 0.1002531 0.12553 0.1117951 0.24248 0.011592 0.11692 0.052516 0.21265 0.091032 0.21265 0.040526 0 0.052974 -0.0681 0.029542 -0.16132 -0.078893 -0.31434 -0.080874 -0.33964 -0.014885 -0.19051 0.1012252 0.22876 0.1618575 0.18279 0.2135427 -0.16187 0.033303 -0.22208 0.0178 -0.37253 -0.053511 -0.51936 -0.1712334 -0.35257 -0.2389162 -0.52817 -0.3598125 -0.93354 -0.064257 -0.21546 -0.1721099 -0.42629 -0.2396683 -0.46846 -0.06756 -0.0421 -0.1228396 -0.14486 -0.1228396 -0.22813 0 -0.1067 -0.039551 -0.15142 -0.1340283 -0.15142 -0.098286 0 -0.1340284 -0.0446 -0.1340284 -0.16753 0 -0.0921 -0.033382 -0.16754 -0.074187 -0.16754 -0.040795 0 -0.05575 0.048 -0.033223 0.10669 0.097052 0.2529 0.1247629 0.44801 0.05776 0.4066 -0.038059 -0.0236 -0.088724 -0.15619 -0.1125811 -0.2948 -0.1073206 -0.6233 -0.090495 -0.5955 -0.3426856 -0.56605 -0.1814261 0.0212 -0.2337013 0.0585 -0.2389191 0.17056 -0.00607 0.1299 -0.011721 0.12761 -0.060327 -0.0241 -0.029502 -0.0921 -0.056665 -0.12632 -0.060337 -0.0759 -0.00428 0.0576 -0.056426 0.0785 -0.1407087 0.0566 -0.07372 -0.0193 -0.1340284 -0.004 -0.1340284 0.0339 0 0.0445 -0.03172 0.0426 -0.08962 -0.005 -0.1544815 -0.12821 -0.3907291 0.18599 -0.338017 0.44953 0.035909 0.17959 0.025253 0.20724 -0.066346 0.1721 -0.081132 -0.0312 -0.1105364 -0.001 -0.1145622 0.11604 -0.00448 0.13157 -0.026974 0.11317 -0.134489 -0.11006 -0.087062 -0.18082 -0.1247191 -0.38733 -0.1157094 -0.63452 0.012219 -0.33665 0.0000298 -0.37019 -0.1503205 -0.41216 -0.2845786 -0.0794 -0.3299744 -0.0642 -0.4706911 0.15873l-0.1375118 0.21779 0.036477 -0.50259c0.056814 -0.78295 0.1136657 -1.07919 0.2145277 -1.11789 0.054287 -0.0208 0.093013 -0.13126 0.093013 -0.26518 0 -0.14909 0.03778 -0.24398 0.107831 -0.27087 0.087739 -0.0336 0.099655 -0.10308 0.063929 -0.37232 -0.029641 -0.22341 -0.021124 -0.31689 0.026198 -0.28764 0.038556 0.0238 0.070098 0.0868 0.070098 0.13989 0 0.0531 0.026278 0.0966 0.058387 0.0966 0.032109 0 0.079013 -0.1555 0.1042162 -0.34556 0.075421 -0.56854 0.3327176 -0.93065 0.4211103 -0.59264 0.045213 0.17287 0.097321 0.1689 0.2757928 -0.0211 0.1934049 -0.20586 0.1999231 -0.61407 0.011721 -0.73162 -0.1959929 -0.1224 -0.1638425 -0.2499 0.075063 -0.29768l0.209096 -0.0418 -0.042148 -0.3586c-0.025582 -0.21759 -0.016388 -0.35859 0.023343 -0.35859 0.036019 0 0.048138 -0.0453 0.026925 -0.10046 -0.084724 -0.22077 -0.1586366 -0.0785 -0.1653917 0.31832 -0.00637 0.37348 -0.015024 0.39888 -0.079948 0.23455 -0.088137 -0.22307 -0.1793147 -0.23954 -0.1855126 -0.0335 -0.00438 0.14395 -0.00706 0.14471 -0.062605 0.0167 -0.031929 -0.0736 -0.077301 -0.25141 -0.1008143 -0.39486 -0.039541 -0.24127 -0.050954 -0.25262 -0.1521373 -0.15145 -0.092754 0.0927 -0.097112 0.14336 -0.028686 0.33262 0.044387 0.12277 0.080704 0.24102 0.080704 0.26278 0 0.0746 -0.2117686 0.009 -0.2792285 -0.0873 -0.04983 -0.0707 -0.056765 -0.0519 -0.026537 0.0716 0.1009884 0.41333 0.1166686 0.57058 0.046994 0.47104 -0.1150984 -0.16442 -0.151591 -0.0433 -0.1922556 0.63834l-0.038944 0.65261 -0.1308085 -0.17957c-0.088993 -0.12215 -0.1697339 -0.16723 -0.2525824 -0.14092 -0.082058 0.0261 -0.1314483 -0.00054 -0.1514349 -0.0815 -0.016318 -0.0661 -0.018676 0.00047 -0.00527 0.14787 0.013432 0.14743 -0.01795 0.38868 -0.069749 0.53611 -0.090276 0.25694 -0.095142 0.26032 -0.1170924 0.0816 -0.012587 -0.10245 -0.053053 -0.17789 -0.089908 -0.16754 -0.036855 0.01 -0.058426 0.0447 -0.047909 0.0762 0.010467 0.0315 -0.019641 0.1042 -0.067013 0.16149 -0.058387 0.0706 -0.086117 0.33696 -0.086117 0.82701 0 0.48879 -0.027124 0.75005 -0.083759 0.80687 -0.067053 0.0672 -0.083759 0.0212 -0.083759 -0.23095 0 -0.17867 -0.030974 -0.31497 -0.07157 -0.31497 -0.086804 0 -0.028656 -2.18238 0.064675 -2.42789 0.082625 -0.21731 0.078058 -0.66523 -0.00627 -0.61313 -0.038108 0.0236 -0.055093 -0.0124 -0.039571 -0.0839 0.014945 -0.069 0.060227 -0.11867 0.1006273 -0.11056 0.042944 0.009 0.094067 -0.15846 0.1230883 -0.40209 0.027293 -0.22919 0.057133 -0.47995 0.066327 -0.55724 0.00925 -0.0773 0.065093 -0.23411 0.1242355 -0.34849 0.059143 -0.11443 0.1075445 -0.28665 0.1075445 -0.38281 0 -0.0995 0.028885 -0.15697 0.067013 -0.1334 0.036855 0.0228 0.067013 0.11505 0.067013 0.205 0 0.0899 0.034099 0.16359 0.075789 0.16359 0.049183 0 0.062426 -0.0824 0.03772 -0.23455 -0.020945 -0.12901 -0.012676 -0.23455 0.018358 -0.23455 0.031034 0 0.042516 -0.12817 0.025512 -0.28481 -0.030318 -0.2793 -0.028944 -0.28157 0.071023 -0.1173 0.085371 0.14031 0.1023098 0.14716 0.1043037 0.042 0.00179 -0.0908 0.025542 -0.10719 0.086147 -0.0595 0.046069 0.0363 0.1633161 0.0849 0.2605405 0.10806 0.1671657 0.0399 0.1792709 0.0255 0.2227822 -0.2647 0.044665 -0.29779 0.04981 -0.30339 0.1750541 -0.19003 0.070973 0.0642 0.1290414 0.15556 0.1290414 0.20296 0 0.0474 0.034526 0.10757 0.076734 0.1336 0.052964 0.0327 0.066227 -0.008 0.042805 -0.13008 -0.018656 -0.0976 -0.00796 -0.1775 0.0238 -0.1775 0.03175 0 0.05772 0.0754 0.05772 0.16754 0 0.0921 0.028119 0.16753 0.062496 0.16753 0.087978 0 0.1408192 -0.19873 0.1576177 -0.59282 0.022885 -0.53673 0.1236993 -0.28635 0.1399227 0.3475 0.00806 0.31648 0.035949 0.59663 0.061899 0.62258 0.02594 0.026 0.047163 -0.0182 0.047163 -0.0981 0 -0.22127 0.1109106 -0.17307 0.1669937 0.0725l0.04972 0.2178 0.068874 -0.2178c0.064277 -0.20328 0.1835136 -0.30125 0.1835136 -0.15077 0 0.0369 0.032019 0.0671 0.071162 0.0671 0.039143 0 0.2385659 0.0791 0.4431685 0.17599 0.281106 0.13299 0.3845451 0.15569 0.4233302 0.093 0.03987 -0.0646 0.059431 -0.0627 0.087649 0.009 0.01998 0.0503 0.038706 0.0174 0.041621 -0.0728 0.00398 -0.12204 0.024726 -0.14475 0.081003 -0.0886 0.074028 0.074 0.3198393 0.72294 0.3241756 0.85578 0.00388 0.11953 -0.3322461 0.074 -0.3717077 -0.0502 -0.047511 -0.1497 -0.1372661 -0.1497 -0.2217285 0 -0.075769 0.13428 -0.1813644 0.0618 -0.2197137 -0.15079 -0.041402 -0.22957 -0.2234638 -0.16111 -0.2227354 0.0838 0.0003552 0.11979 -0.022258 0.2178 -0.050257 0.2178 -0.027999 0 -0.050904 -0.0489 -0.050904 -0.1087 0 -0.0875 -0.019044 -0.0928 -0.097311 -0.028 -0.053521 0.0444 -0.1590655 0.0612 -0.2345501 0.0371 -0.139657 -0.0444 -0.1931721 0.057 -0.070227 0.13301 0.1015615 0.0627 0.080187 0.54238 -0.036636 0.82197 -0.081839 0.19589 -0.1168686 0.22716 -0.166509 0.14864 -0.050029 -0.0792 -0.063073 -0.0686 -0.063899 0.0513 -0.0005641 0.0829 -0.031183 0.1508 -0.068048 0.1508 -0.036855 0 -0.067013 0.10333 -0.067013 0.22975 0 0.12637 -0.04782 0.27758 -0.106249 0.33601 -0.080923 0.0809 -0.094963 0.17306 -0.058924 0.38643 0.043641 0.25832 0.054546 0.27032 0.1397585 0.15379 0.090236 -0.1234 0.092455 -0.12327 0.09345 0.004 0.0007801 0.099 0.014855 0.10819 0.058894 0.0388 0.048864 -0.0771 0.064406 -0.0771 0.09983 0 0.023074 0.0502 0.028785 -0.0745 0.012676 -0.27723 -0.026497 -0.33369 -0.022437 -0.34796 0.042874 -0.15078 0.046884 0.14153 0.1156716 0.2178 0.1964745 0.2178 0.068386 0 0.1247967 0.0226 0.1253598 0.0503 0.00458 0.22509 0.3315804 0.2507 0.3364191 0.0263 0.00159 -0.0769 0.031283 -0.0596 0.098147 0.0575 0.094565 0.16541 0.095799 0.16563 0.098147 0.0167 0.00298 -0.18688 0.1124806 -0.19768 0.1699109 -0.0167 0.048864 0.15394 0.4201024 0.18972 0.5562183 0.0536 0.062546 -0.0626 0.080426 -0.0626 0.080426 0 0 0.1343 0.1829575 0.0897 0.2204595 -0.0536 0.01928 -0.0736 0.0652 -0.13403 0.102061 -0.13403 0.03685 0 0.05124 0.0603 0.03197 0.13403 -0.02846 0.10882 -0.002 0.13403 0.140303 0.13403 0.09643 0 0.175351 0.0304 0.175351 0.0676 0 0.04 0.05471 0.0334 0.134203 -0.0162 0.135424 -0.0847 0.144326 -0.232 0.01234 -0.20349 -0.03921 0.009 -0.0904 -0.0448 -0.113727 -0.11829 -0.02333 -0.0735 -0.06663 -0.11866 -0.09624 -0.10035 -0.0296 0.0183 -0.07302 -0.0868 -0.09648 -0.23356 -0.04573 -0.28599 -0.07311 -0.30231 -0.338286 -0.20149 -0.1606493 0.0611 -0.1718977 0.0523 -0.1718977 -0.13403 0 -0.10968 -0.030149 -0.19938 -0.067013 -0.19938 -0.036855 0 -0.067013 0.0415 -0.067013 0.0923 0 0.0507 -0.045233 0.12986 -0.1005267 0.17574 -0.085829 0.0713 -0.1005158 0.0517 -0.1005158 -0.13327 0 -0.21138 -0.00577 -0.21563 -0.234549 -0.17271 -0.1427704 0.0268 -0.2345501 0.0174 -0.2345501 -0.024 0 -0.0374 -0.037691 -0.0539 -0.083759 -0.037 -0.083709 0.031 -0.3315107 -0.52462 -0.4192179 -0.93982l-0.042466 -0.20105 0.148415 0.16753c0.1048778 0.11841 0.1575362 0.14146 0.1795008 0.0786 0.020616 -0.059 0.1091404 -0.004 0.2628737 0.16416 0.1868667 0.20401 0.2436981 0.23422 0.293243 0.1559 0.050894 -0.0804 0.06162 -0.077 0.062486 0.0202 0.0005631 0.0645 0.034606 0.11729 0.07565 0.11729 0.044795 0 0.062824 -0.0804 0.045113 -0.20104 -0.020129 -0.13719 -0.00129 -0.20105 0.059401 -0.20105 0.048894 0 0.088913 0.0405 0.088913 0.0901 0 0.0496 0.055571 0.14042 0.1234744 0.20187 0.1171933 0.10607 0.1295443 0.0982 0.2427393 -0.15274 0.116482 -0.25829 0.115983 -0.2698 -0.02109 -0.49158 -0.148907 -0.24093 -0.2232383 -0.69443 -0.110575 -0.67462 0.03686 0.006 0.119785 0.0323 0.18429 0.0575 0.08408 0.0327 0.11728 0.0128 0.11728 -0.0703 0 -0.0955 0.01776 -0.10121 0.100527 -0.0324 0.08567 0.071 0.100515 0.0527 0.100515 -0.12414 0 -0.19676 0.0093 -0.20408 0.177201 -0.14022 0.144441 0.0549 0.217439 0.0398 0.394873 -0.0818 0.188732 -0.12932 0.223218 -0.19865 0.25937 -0.52137 0.02294 -0.20473 0.05134 -0.44762 0.06314 -0.53976 0.02918 -0.22798 0.300076 -0.99289 0.439058 -1.23976 0.311366 -0.55308 0.407678 -0.99514 0.43942 -2.01685 0.05555 -1.78838 0.118439 -2.73954 0.186759 -2.82494 0.153742 -0.19217 0.309683 -0.0911 0.413639 0.26808 0.05601 0.19349 0.179493 0.61409 0.274418 0.93464 0.09492 0.32056 0.199914 0.75072 0.23331 0.95592 0.03339 0.2052 0.07771 0.40057 0.09846 0.43416 0.02076 0.0335 0.09582 0.28194 0.166795 0.5519 0.07097 0.26996 0.207825 0.76224 0.304103 1.09396 0.09628 0.33172 0.232635 0.81422 0.303022 1.07222 0.07039 0.258 0.201581 0.65004 0.291543 0.87119 0.160804 0.39529 0.319304 0.88783 0.406148 1.26214 0.03215 0.13854 0.02235 0.17648 -0.03624 0.14027 -0.121843 -0.0753 -0.03081 1.28658 0.132472 1.9818 0.29019 1.23556 0.34622 1.60029 0.345393 2.24834 -0.000469 0.37041 -0.02925 0.70213 -0.06395 0.73714 -0.0347 0.035 -0.09406 0.41046 -0.131914 0.83434 -0.137971 1.54491 -0.221467 2.24744 -0.280646 2.36133 -0.03325 0.0641 -0.06047 0.22088 -0.06047 0.34862 0 0.23345 -0.219692 1.84174 -0.333702 2.44292 -0.03362 0.17728 -0.12925 0.43779 -0.212508 0.5789l-0.151378 0.25656 -0.08378 -0.19633c-0.07425 -0.17399 -0.08413 -0.17918 -0.0868 -0.0455 -0.0016 0.0829 -0.03117 0.15078 -0.06559 0.15078 -0.03442 0 -0.07211 0.0812 -0.08376 0.1803 -0.0182 0.15472 -0.06872 0.19256 -0.356275 0.26677 -0.401821 0.10371 -0.342369 0.10633 -1.005213 -0.0452zM10.8586 18.221190000000036c-0.0018 -0.19397 -0.115211 -0.32941 -0.202729 -0.24189 -0.05573 0.0557 -0.05227 0.11218 0.01332 0.21723 0.107682 0.17243 0.190786 0.18323 0.189399 0.0247zm-0.825776 -1.64186c-0.0186 -0.0462 -0.0338 -0.009 -0.0338 0.0838 0 0.0921 0.015203 0.12984 0.0338 0.0838 0.01859 -0.0461 0.01859 -0.12141 0 -0.16754zm-0.9870111 -2.48863c-0.061541 -0.0573 -0.070446 -0.0127 -0.038546 0.1934 0.022825 0.14743 0.047093 0.3133 0.053949 0.36858 0.00687 0.0553 0.024198 -0.0317 0.038546 -0.19339 0.015452 -0.1741 -0.00647 -0.32436 -0.053949 -0.36859zm-1.5581323 -1.52802c-0.021392 -0.0534 -0.037273 -0.0375 -0.040487 0.0405 -0.00289 0.0706 0.012925 0.11019 0.035203 0.088 0.022278 -0.0223 0.024646 -0.08 0.00527 -0.12844zm3.5503554 -2.01462c-0.01859 -0.0462 -0.0338 -0.009 -0.0338 0.0838 0 0.0921 0.0152 0.12983 0.0338 0.0838 0.01859 -0.0461 0.01859 -0.1214 0 -0.16753zm-0.168846 -0.26187 -0.0645 -0.22398 -0.006 0.24013c-0.0034 0.13208 0.01594 0.26212 0.04281 0.28899 0.08207 0.0822 0.09577 -0.0688 0.02771 -0.30514zm-4.4530753 -0.10545c-0.016985 -0.0652 -0.032009 -0.0281 -0.033382 0.0825 -0.00139 0.11056 0.012537 0.16393 0.030885 0.11854 0.018358 -0.0454 0.019472 -0.13583 0.00249 -0.20104zm5.8012723 -0.0925c-0.04985 -0.19062 -0.08462 -0.15264 -0.08346 0.0911 0.000697 0.14808 0.01952 0.18861 0.05879 0.12662 0.03177 -0.0501 0.04288 -0.14817 0.02467 -0.2178zm-0.177215 -0.10769c0.01274 -0.13937 0.0044 -0.31322 -0.01855 -0.38634 -0.03959 -0.12611 -0.04466 -0.12496 -0.09915 0.0223 -0.05678 0.15346 -0.0041 0.71609 0.06088 0.65105 0.01851 -0.0184 0.04408 -0.14768 0.05681 -0.28705zm-1.469839 0.10259c-0.02139 -0.0535 -0.03727 -0.0375 -0.04049 0.0405 -0.0029 0.0707 0.01292 0.11019 0.0352 0.088 0.02228 -0.0223 0.02466 -0.08 0.0053 -0.12844zm-1.7713942 5.57582c-0.1693677 -0.13827 -0.1977988 -0.26915 -0.058466 -0.26915 0.1240982 0 0.2591215 0.17112 0.2315342 0.29344 -0.018577 0.0824 -0.047362 0.0784 -0.1730691 -0.0243zM7.81428 15.508910000000014c-0.179836 -0.25676 -0.1359675 -0.38718 0.1302285 -0.38718 0.1677588 0 0.234549 -0.0297 0.234549 -0.10446 0 -0.0574 0.030148 -0.0859 0.067013 -0.0631 0.1233878 0.0763 0.070923 0.40855 -0.088087 0.55794 -0.1927741 0.1811 -0.2147397 0.18089 -0.3437054 -0.004zm0.7376653 -0.50157c-0.036377 -0.0955 -0.028666 -0.10321 0.037521 -0.0375 0.0458 0.0455 0.066386 0.0996 0.04576 0.12017 -0.020626 0.0206 -0.058098 -0.0166 -0.083262 -0.0827zm-2.1400325 -0.84056c-0.066585 -0.24845 -0.043392 -0.29513 0.058287 -0.11729 0.1120816 0.19606 0.1231758 0.26806 0.041322 0.26806 -0.032556 0 -0.077381 -0.0679 -0.099605 -0.15078zm-0.9003575 -0.68686c0.00139 -0.11055 0.016388 -0.14769 0.033382 -0.0825 0.016985 0.0652 0.01588 0.15567 -0.00249 0.20105 -0.018358 0.0454 -0.032258 -0.008 -0.030885 -0.11855zM5.174 10.832879999999989c0 -0.0921 0.015204 -0.12985 0.0338 -0.0838 0.018587 0.0462 0.018587 0.12141 0 0.16754 -0.018597 0.0462 -0.0338 0.009 -0.0338 -0.0838zm0.1291837 -0.60313c0.00199 -0.12901 0.029601 -0.29487 0.061272 -0.36858 0.045243 -0.10533 0.058387 -0.0765 0.061272 0.13402 0.00199 0.14743 -0.025552 0.31329 -0.061272 0.36858 -0.048486 0.075 -0.064028 0.041 -0.061272 -0.13402zm9.9949263 -0.0671c0 -0.129 0.01378 -0.18177 0.03065 -0.11729 0.01685 0.0645 0.01685 0.17004 0 0.23455 -0.01686 0.0646 -0.03065 0.0112 -0.03065 -0.1173zm-0.07589 -0.74801c-0.0036 -0.13498 -0.0519 -0.48178 -0.107183 -0.77067 -0.128068 -0.66927 -0.120583 -0.74176 0.03349 -0.32421 0.09361 0.25369 0.125396 0.29438 0.130872 0.16754 0.0066 -0.15202 0.01388 -0.15611 0.07896 -0.0441 0.03945 0.0679 0.08443 0.36942 0.09992 0.67013 0.02324 0.45103 0.01463 0.51742 -0.04932 0.37921l-0.07752 -0.16753 -0.05126 0.16753c-0.04566 0.14918 -0.052 0.14066 -0.05795 -0.0779zm-6.7070728 -0.13992c0.0008299 -0.12191 0.013462 -0.13156 0.065988 -0.0503 0.083958 0.12994 0.083958 0.20106 0 0.20106 -0.036855 0 -0.066546 -0.0679 -0.065988 -0.15078z" id="path3724" />
</svg>
