<svg
   xmlns="http://www.w3.org/2000/svg"
   width="20"
   height="20"
   viewBox="0 0 20 20"
   version="1.1">
   <path style="fill:#000000;stroke-width:0.07175382" d="M9.9198932 19.950170000000014c0 -0.0485 -0.0468 -0.0703 -0.10389 -0.0484 -0.0571 0.0219 -0.25894 -0.0429 -0.44846 -0.14415 -0.22061 -0.11781 -0.4672 -0.18636 -0.68541 -0.19057 -0.24115 -0.005 -0.34083 -0.0359 -0.34083 -0.10698 0 -0.0633 -0.0432 -0.0839 -0.11673 -0.0557 -0.0642 0.0247 -0.16352 0.006 -0.22073 -0.0415 -0.0811 -0.0673 -0.1159 -0.0671 -0.15808 0.001 -0.0664 0.10745 -0.71285 -0.50841 -0.99507 -0.948 -0.21666 -0.33747 -0.5185 -0.95712 -0.5185 -1.06443 0 -0.0395 -0.044 -0.17346 -0.0978 -0.29782 -0.37094 -0.85794 -0.65309 -3.73657 -0.59309 -6.05093 0.0214 -0.82345 0.01 -1.30239 -0.0307 -1.23886 -0.053 0.0838 -0.0657 0.0777 -0.0666 -0.032 -0.00045 -0.0746 0.0468 -0.17145 0.10541 -0.21526 0.0882 -0.066 0.11944 -0.52652 0.18177 -2.67931 0.0414 -1.42981 0.0712 -3.07656 0.0662 -3.65945 -0.0176 -2.04562 -0.0137 -2.10023 0.14783 -2.10023 0.0889 0 0.1435 0.0478 0.14348 0.12558 -0.00006 0.279 0.0739 3.59527 0.1405 6.29639 0.0593 2.40544 0.0946 2.99135 0.2183 3.61867 0.0812 0.41168 0.17522 0.78301 0.20901 0.82517 0.0338 0.0422 0.0853 0.18967 0.11435 0.32779 0.14054 0.66692 0.87361 1.64764 1.32219 1.76883 0.096 0.026 0.25514 0.089 0.35357 0.14002 0.15352 0.0797 0.19136 0.0759 0.26609 -0.0263 0.0646 -0.0884 0.1123 -0.0993 0.18459 -0.042 0.17987 0.14227 0.45778 0.16582 0.66828 0.0566 0.11358 -0.0589 0.32899 -0.11533 0.4786898 -0.12536 0.24176 -0.0162 0.30562 -0.0649 0.57138 -0.43606 0.16456 -0.22981 0.32687 -0.54095 0.36068 -0.69143 0.0338 -0.15048 0.12738 -0.97856 0.20792 -1.84018 0.0806 -0.86162 0.17664 -1.66344 0.21352 -1.78184 0.0947 -0.30411 0.21427 -3.26978 0.214 -5.3094 -0.00014 -1.1018 0.026 -1.73047 0.0726 -1.74602 0.0401 -0.0134 0.0729 -0.10422 0.0729 -0.20193 0 -0.10015 0.0313 -0.15829 0.0718 -0.13329 0.0395 0.0244 0.0718 0.14033 0.0718 0.25764 0 0.11731 0.0655 0.40764 0.14549 0.64518 0.08 0.23754 0.1284 0.45958 0.10749 0.49341 -0.0591 0.0956 0.0992 1.46014 0.17861 1.53957 0.0846 0.0846 0.0897 0.0432 0.11904 -0.96257 0.0409 -1.40541 0.0479 -1.50015 0.10744 -1.46336 0.0327 0.0202 0.0617 0.17208 0.0645 0.33747 0.005 0.31016 0.12312 0.71862 0.13342 0.46217 0.006 -0.15378 0.0544 -0.15824 0.19464 -0.018 0.0892 0.0892 0.10836 0.39323 0.11211 1.77591 0.003 0.91757 -0.015 2.37868 -0.0388 3.2469 -0.0442 1.61092 -0.001 2.54178 0.10133 2.18849 0.0286 -0.0987 0.0573 -0.583 0.0637 -1.07631 0.008 -0.58405 0.0333 -0.84344 0.0736 -0.74359 0.034 0.0843 0.0548 0.5775 0.0461 1.09594 -0.016 0.9541 0.039 1.29564 0.14489 0.8996l0.0566 -0.21152 0.0431 0.25114 0.0431 0.25114 0.0461 -0.25114c0.0254 -0.13812 0.0715 -0.6386 0.10258 -1.11218 0.0561 -0.85482 0.0566 -0.85689 0.0784 -0.28701 0.0121 0.31571 -0.0108 1.05342 -0.0509 1.63934 -0.0753 1.1002 -0.006 2.37241 0.15204 2.80939 0.0429 0.1184 0.0829 0.45743 0.0888 0.75341 0.007 0.35533 0.0634 0.67669 0.1657 0.94592 0.11701 0.3079 0.14459 0.49526 0.11265 0.76499 -0.0233 0.19647 -0.009 0.45341 0.0322 0.57098 0.0484 0.1388 0.05 0.23828 0.005 0.28369 -0.0385 0.0385 -0.1307 0.30615 -0.20497 0.59485 -0.0832 0.32327 -0.18472 0.55404 -0.26441 0.60074 -0.0712 0.0417 -0.18841 0.10853 -0.26053 0.1485 -0.0721 0.04 -0.20308 0.25026 -0.29101 0.46732 -0.0879 0.21706 -0.2129 0.49151 -0.27772 0.60991 -0.0648 0.11839 -0.15151 0.28921 -0.19265 0.37959 -0.0634 0.1394 -0.0974 0.15225 -0.22357 0.0847 -0.094 -0.0503 -0.18013 -0.0548 -0.23388 -0.0123 -0.14387 0.11371 -0.78384 0.045 -1.15186 -0.12372l-0.34922 -0.16008 -0.44007 0.16081c-0.24205 0.0884 -0.48044 0.19179 -0.52977 0.22966 -0.0605 0.0464 -0.0897 0.0401 -0.0897 -0.0194zm-4.11271 -6.90293c-0.0229 -0.0572 -0.0399 -0.0402 -0.0433 0.0433 -0.003 0.0756 0.0138 0.11802 0.0377 0.0942 0.0239 -0.0239 0.0264 -0.0857 0.006 -0.13753zm-0.0711 -0.39777c-0.0182 -0.0698 -0.0343 -0.0301 -0.0357 0.0883 -0.001 0.11839 0.0134 0.17551 0.0331 0.12693 0.0197 -0.0486 0.0209 -0.14544 0.003 -0.21526zm7.9289398 -3.78638c0.001 -0.11839 0.0175 -0.15814 0.0357 -0.0883 0.0182 0.0698 0.017 0.16669 -0.003 0.21527 -0.0197 0.0486 -0.0346 -0.009 -0.0331 -0.12694zm-0.24933 -3.47046c0.012 -1.67197 0.0446 -3.07655 0.0723 -3.12129 0.0277 -0.0447 0.0709 -0.32352 0.0959 -0.61951 0.0981 -1.16019 0.0665 1.5872 -0.0406 3.53193 -0.0593 1.07648 -0.11716 2.24784 -0.12863 2.60303 -0.0115 0.35518 -0.011 -0.72219 0.0009 -2.39416zm-0.10678 -1.0859c0 -0.13813 0.0148 -0.19464 0.0328 -0.12558 0.0181 0.0691 0.0181 0.18208 0 0.25114 -0.0181 0.0691 -0.0328 0.0126 -0.0328 -0.12556zm-7.5407098 -3.65945c0 -0.25652 0.0277 -0.53098 0.0617 -0.60991 0.0428 -0.0996 0.0617 -0.00044 0.0617 0.32289 0 0.25653 -0.0277 0.53098 -0.0617 0.60991 -0.0428 0.0996 -0.0617 0.00045 -0.0617 -0.32289z" />
</svg>
