<svg xmlns="http://www.w3.org/2000/svg" width="20" height="20" viewBox="0 0 20 20">
<path style="fill:#000000;stroke-width:0.14020488" d="M0.05742273 19.504130000000032c-0.11349397 -0.65969 -0.05417435 -2.65351 0.13754012 -4.62293 0.36416247 -3.7409 1.21083025 -6.69055 1.97308315 -6.87391 0.1875751 -0.0451 0.5924361 -0.32145 0.8996925 -0.61406 1.7973377 -1.71167 2.3195567 -2.11814 2.7391676 -2.132 0.1580452 -0.005 0.8888429 -0.40428 1.6239928 -0.88681 0.7351499 -0.48252 1.415207 -0.85253 1.5112378 -0.82223 0.096028 0.0303 0.7645776 -0.3111 1.4856623 -0.75864 0.721083 -0.44755 1.418769 -0.77974 1.55041 -0.73821 0.131643 0.0415 0.660401 -0.17187 1.175018 -0.47421 1.572586 -0.92391 1.968105 -1.11154 2.317261 -1.09932 0.18465 0.006 0.689777 -0.0988 1.122509 -0.23399 0.689189 -0.21528 0.898056 -0.21075 1.683879 0.0366 0.832554 0.26202 0.905954 0.26028 1.020168 -0.024 0.167505 -0.41696 0.360751 -0.32066 0.401192 0.19994 0.01834 0.23599 0.09219 0.77179 0.164133 1.19066 0.261819 1.52443 0.1401 4.68843 -0.280223 7.28392 -0.139199 0.85956 -0.321566 1.69949 -0.40526 1.86652 -0.08369 0.16703 -0.338828 0.81486 -0.56696 1.43963 -0.421018 1.153 -0.891789 1.80164 -1.149587 1.58393 -0.148926 -0.12576 -0.288478 -0.94739 -0.312397 -1.83927 -0.0078 -0.28939 -0.212887 -0.89643 -0.455835 -1.34898 -0.425733 -0.79302 -0.466337 -0.82818 -1.121667 -0.97135 -0.547357 -0.11957 -0.781904 -0.0857 -1.202813 0.17375 -0.577825 0.35616 -1.091336 0.32155 -0.881849 -0.0594 0.06919 -0.12583 -0.01508 -0.0489 -0.187273 0.17104 -0.172191 0.21991 -0.402802 0.37153 -0.51247 0.33693 -0.11809 -0.0373 -0.144934 -0.11794 -0.06583 -0.19788 0.08088 -0.0817 0.06754 -0.11427 -0.03383 -0.0825 -0.09207 0.0289 -0.160376 0.13971 -0.151798 0.24628 0.01883 0.23388 -2.088742 1.54997 -2.182708 1.36301 -0.03629 -0.0722 0.377983 -0.41706 0.920618 -0.76631 0.542636 -0.34926 0.849647 -0.57853 0.682247 -0.50948 -0.593311 0.24471 -1.877661 1.14085 -1.840917 1.28448 0.05202 0.20337 -0.3379535 0.47421 -0.5750886 0.3994 -0.1645568 -0.0519 -0.1469692 -0.0961 0.1085478 -0.27258 0.1677061 -0.11585 0.2453826 -0.22942 0.1726153 -0.25237 -0.1720298 -0.0543 -0.5857174 0.26121 -0.6483981 0.49447 -0.077067 0.2868 -1.508756 1.27964 -1.7400398 1.20668 -0.1344428 -0.0424 0.097249 -0.25696 0.6526632 -0.60436 0.4736048 -0.29622 0.8764955 -0.59844 0.8953098 -0.67159 0.018815 -0.0731 -0.4079994 0.13623 -0.9484789 0.46527 -0.6566511 0.39976 -0.9409012 0.64897 -0.8567364 0.7511 0.1466711 0.17799 -0.3964156 0.62044 -0.6596374 0.53741 -0.086425 -0.0273 -0.3588977 0.11114 -0.6054987 0.30758 -0.8367685 0.66654 -2.3028416 1.59372 -2.2606474 1.42968 0.023094 -0.0898 0.2628122 -0.32026 0.5327066 -0.51219 1.9087764 -1.35734 1.9101319 -1.35861 1.5726569 -1.46507 -0.1038589 -0.0328 -0.5222148 0.14593 -0.9296847 0.39709 -0.4074702 0.25115 -0.7712019 0.44707 -0.8082924 0.43537 -0.1813484 -0.0572 0.098154 -0.53247 0.3628583 -0.61699 0.1660286 -0.053 0.3263561 -0.19163 0.3562984 -0.30804 0.029943 -0.11641 0.1048538 -0.19574 0.1664698 -0.17631 0.1378062 0.0435 1.2737579 -0.57573 1.3092384 -0.71366 0.040089 -0.15585 -0.7730393 0.15242 -1.1240232 0.42614 -0.1737145 0.13547 -0.3838336 0.22487 -0.4669326 0.19865 -0.2266136 -0.0715 -1.0217598 0.91232 -1.1538758 1.42764 -0.063682 0.24811 -0.2318991 0.5228 -0.3739641 0.61036 -0.4615215 0.28447 -1.5754484 2.15196 -2.0573575 3.44913 -0.25626638 0.6898 -0.51090452 1.29962 -0.5658644 1.35516 -0.18312717 0.18507 -0.33369349 0.0316 -0.41123691 -0.4191zm6.53573547 -6.10842c0.1682208 -0.11621 0.2825374 -0.25767 0.2540381 -0.31438 -0.059586 -0.11855 -0.7053554 0.18099 -0.748055 0.34699 -0.051023 0.19836 0.1819235 0.18298 0.4940169 -0.0326zm-0.8515084 -5.79052c0.1271718 0.0401 0.1584407 0.13498 0.081769 0.24809 -0.083687 0.12347 -0.055834 0.17641 0.085458 0.16246 0.1471011 -0.0145 0.1841801 -0.0845 0.1243482 -0.23484 -0.060743 -0.15259 0.030898 -0.28058 0.3187815 -0.44521 0.3948884 -0.22583 0.5232952 -0.0719 0.1380911 0.16553 -0.3731971 0.23003 -0.075483 0.3489 0.4561231 0.18213 0.6078811 -0.19069 0.5707137 -0.14505 0.5312702 -0.65281 -0.024806 -0.31933 0.043905 -0.42655 0.4050103 -0.63205 0.2391874 -0.13612 0.5912789 -0.24961 0.7824272 -0.2522 0.1911488 -0.003 0.9538764 -0.39107 1.6949496 -0.86327 0.741076 -0.4722 1.427629 -0.83324 1.525675 -0.80231 0.09805 0.0309 0.768247 -0.30993 1.489331 -0.75748 0.721084 -0.44754 1.38499 -0.7904 1.475346 -0.76189 0.09035 0.0285 0.438586 -0.0589 0.773845 -0.19413 0.870247 -0.35114 1.766369 -0.32585 2.208621 0.0623 0.189243 0.1661 0.383521 0.27769 0.431733 0.24798 0.168601 -0.10393 0.179369 -1.17485 0.0151 -1.50168 -0.247403 -0.49224 -1.020435 -0.45292 -2.080296 0.10582 -0.211816 0.11167 -0.425162 0.1904 -0.474106 0.17496 -0.04894 -0.0154 -0.44522 0.16869 -0.880613 0.40918 -0.435392 0.24049 -0.897113 0.40549 -1.026048 0.36668 -0.128932 -0.0388 -0.847492 0.28832 -1.596794 0.72696 -0.749303 0.43865 -1.460488 0.76658 -1.58041 0.72875 -0.11992 -0.0378 -0.7046025 0.2092 -1.2992914 0.54896 -0.5946895 0.33976 -1.4914903 0.76732 -1.9928918 0.95014 -0.6313756 0.23021 -1.0690185 0.51012 -1.4235626 0.91048 -0.2815589 0.31795 -0.8064763 0.73631 -1.1664833 0.9297 -0.5805983 0.31189 -1.0650491 0.81008 -1.1647883 1.19783 -0.018767 0.073 0.4103876 -0.14133 0.9536817 -0.4762 0.5432937 -0.33488 1.0804653 -0.57964 1.1937167 -0.54391zM15.842555 7.810670000000016c-0.02411 -0.048 -0.156377 0.0295 -0.293933 0.17209 -0.23896 0.24776 -0.237008 0.25164 0.04383 0.0872 0.161665 -0.0947 0.27421 -0.21134 0.250103 -0.2593zm-0.390247 -4.63782c-0.05521 -0.10985 -1.328094 0.64423 -1.379601 0.81731 -0.01848 0.0621 0.2953 -0.0747 0.697287 -0.30388 0.401986 -0.22923 0.709029 -0.46028 0.682314 -0.51343zm1.005341 0.0552c0.252807 -0.0525 0.508189 -0.0365 0.567513 0.0355 0.150236 0.18231 0.677083 0.1467 0.628681 -0.0425 -0.10066 -0.39348 -1.437743 -0.46813 -1.667505 -0.0931 -0.126319 0.20619 -0.08371 0.21524 0.471311 0.10007z" id="path3772"/>
</svg>
