<svg xmlns="http://www.w3.org/2000/svg" width="20" height="20" viewBox="0 0 20 20">
	<defs>
		<radialGradient id="gradient_dark_grey" cx="50%" cy="50%" r="50%" fx="50%" fy="50%">
		  <stop offset="0%" style="stop-color:rgb(40,40,40); stop-opacity:0.7" />
		  <stop offset="80%" style="stop-color:rgb(80,80,80); stop-opacity:0.7" />
		  <stop offset="100%" style="stop-color:rgb(120,120,120);stop-opacity:0.7" />
		</radialGradient>
    </defs>
	<path fill="url(#gradient_dark_grey)" d="m12.6 0c0.4 0.2 2.9 4.7 2.9 5.1 0 0.1 0.2 0.2 0.5 0.2 0.3 0 0.3-0.6 0.2-1.3-0.2-0.7-0.1-1.2 0.2-1.2 0.3 0 0.5-0.6 0.4-1.2-0.4-2.6 1.2-0.3 2.3 3.3 1.2 4 1.3 6.9 0.4 9.6-0.5 1.7-0.8 2-2.3 3.4-1 0.9-4.1 2-6.1 2C9.4 20 7.5 19.4 7.2 18.6 6.9 18 5 17 3.7 16.9 2.5 16.8 1.5 15.8 1 14.5 0.9 14 0.5 13.4 0.3 13.3-0.7 12.6 0.9 10.6 4.1 8.7 5.2 8.1 5.9 7.8 6.3 7.9 7 8.1 11.2 3.6 11.1 2.8 11 2.5 11.2 2.4 11.7 2.5c0.8 0.1 0.8 0 0.8-1.6 0-0.5 0-0.9 0.1-0.9z" stroke-width="0.3"/>
</svg>