<svg xmlns="http://www.w3.org/2000/svg" xmlns:xlink="http://www.w3.org/1999/xlink" width="20" height="20" viewbox="0 0 20 20">
    <defs>
        <radialGradient id="gradient_light_grey" class="test" cx="50%" cy="50%" r="50%" fx="50%" fy="50%">
          <stop offset="0%" style="stop-color:rgb(40,40,40); stop-opacity:0.3" />
          <stop offset="80%" style="stop-color:rgb(80,80,80); stop-opacity:0.3" />
          <stop offset="100%" style="stop-color:rgb(120,120,120);stop-opacity:0.3" />
        </radialGradient>

        <radialGradient id="gradient_dark_grey" class="test" cx="50%" cy="50%" r="50%" fx="50%" fy="50%">
          <stop offset="0%" style="stop-color:rgb(40,40,40); stop-opacity:0.7" />
          <stop offset="80%" style="stop-color:rgb(80,80,80); stop-opacity:0.7" />
          <stop offset="100%" style="stop-color:rgb(120,120,120);stop-opacity:0.7" />
        </radialGradient>
    </defs>

    <path id="brush_1" fill="url(#gradient_dark_grey)" stroke="none" stroke-width="0.1"
    d="m0.2 3.3c0 0.3 0.3 1.1 0.6 1.7C1 5.7 1.2 6.4 1.2 6.5 1.1 6.6 1.2 6.8 1.6 6.9 2.2 7 2.3 6.9 2.1 6.2 1.9 5.5 2.1 5.6 2.5 6.4 2.6 6.7 2.8 7 2.9 6.9 3.1 6.8 3.5 5.9 3.4 5.7 3.4 5.5 3.4 5.3 3.4 5.1 3.5 4.9 3.5 4.6 3.5 4.4 3.5 4.2 3.5 3.9 3.6 3.7 3.7 3.5 3.8 3.6 4 3.9L4.2 4.4 4.6 3.6C5 3.1 5 2.8 4.9 2.2 4.9 1.9 4.8 1.2 4.8 0.8L4.8 0 5.1 0.4C5.3 0.6 5.5 0.9 5.5 1.1 5.5 1.2 5.7 1.4 5.9 1.6 6.1 1.7 6.3 2.2 6.4 2.6 6.5 3.2 6.6 3.3 6.8 3.1 7 3 7.1 3 7.3 3.1 7.4 3.2 7.5 3.2 7.6 2.9 7.6 2.3 7.9 2.7 7.8 3.3 7.8 3.9 8.1 4.2 8.2 3.7 8.2 3.4 8.5 3.4 8.5 3.7 8.6 4 9.8 4.6 10 4.5 10.4 4.2 10.5 3.2 10.3 2.2 10.1 1.3 10.2 0.2 10.4 0.3c0.2 0.1 0.9 1.7 0.8 2.1 0 0.3 0.1 0.4 0.5 0.5 0.1 0 0.1 0.1 0 0.1-0.1 0.1-0.1 0.3 0.1 0.6 0.3 0.5 0.4 0.6 0.5 0.3 0.1-0.3 0.7-0.1 0.9 0.2 0.1 0.1 0.2 1 0.2 1.9 0 1.7 0.1 2.1 0.5 2.5 0.1 0.1 0.3 0.4 0.3 0.6 0 0.2 0.1 0.6 0.2 0.8 0.1 0.3 0.2 0.5 0.1 0.6-0.1 0.1 0 0.4 0 0.8 0.1 0.3 0.1 0.8 0.1 1.1 0 0.3 0 0.5 0.1 0.5 0.2-0.1 0.3-1.3 0.2-2.7 0-0.7 0-1.3 0-1.4 0.1-0.2 0.7-0.1 0.8 0.2 0.1 0.2 0.2 0.3 0.5 0.2 0.3-0.1 0.3 0 0.4 0.3 0 0.2 0 0.6 0 0.8 0 0.2 0.1 0.6 0.2 1 0.1 0.4 0.2 0.6 0.1 0.6-0.1 0 0 0.1 0.1 0.2 0.1 0.1 0.1 0.3 0 0.4-0.1 0.1-0.1 0.3 0 0.6 0.2 0.5 0.3 2.7 0.1 3.1-0.1 0.1 0 0.3 0 0.5 0.1 0.1 0.1 0.5 0.1 0.8 0 0.3 0 0.5 0.1 0.5 0.3-0.1 0.1 0.7-0.3 1.1-0.4 0.4-1.5 0.5-3.6 0.4-0.9 0-1.7 0-1.9 0-0.5 0.2-0.8 0.1-1.3-0.5-0.6-0.7-1.9-1.1-2.6-0.8-0.3 0.1-0.6 0.2-0.6 0.1 0-0.1-0.5 0-1 0.1-0.5 0.1-1 0.1-1 0 0-0.1-0.8-0.6-1.2-0.8-0.1 0-0.4-0.2-0.7-0.4-0.7-0.5-0.9-0.5-1-0.2-0.1 0.2-0.2 0.2-0.4 0.1-0.1-0.1-0.4-0.3-0.5-0.4-0.3-0.2-0.3-0.1-0.2 0.1 0.1 0.4-0.1 0.5-0.7 0.3-0.4-0.1-0.5-0.3-0.4-1 0-0.9 0.3-3.6 0.5-4.5 0.1-0.3 0-1.1-0.1-1.7-0.1-0.6-0.2-1.3-0.1-1.3 0-0.1 0-0.8-0.2-1.6-0.2-0.8-0.2-1.6-0.1-1.8 0.1-0.2 0.1-0.4 0.1-0.4-0.2 0-0.3-1.3-0.2-1.5 0-0.1 0.1 0.1 0.1 0.4zM1.1 7.3C1.2 7.5 1.2 7.5 1.2 7.2 1.3 7.1 1.2 6.9 1.1 6.9 0.9 6.9 0.9 7 1.1 7.3ZM13.8 8.9C14 9.2 14 9.2 13.9 8.9 13.8 8.5 13.7 8.4 13.7 8.5c0 0 0.1 0.2 0.2 0.4zm1.6 0.7c0.1 0.4 0.2 0.6 0.2 0.5 0.1-0.2 0-1.3-0.2-1.4-0.2-0.1-0.2 0.3-0.1 0.9zM0.7 2.9c0 0.4 0 0.7-0.1 0.9-0.1 0.1-0.1-0.1-0.1-0.5 0-0.9 0.2-1.2 0.2-0.4zM14 6.9c0.1 0.1 0.1 0.3 0 0.3-0.1 0-0.1-0.1-0.1-0.3 0-0.2 0.1-0.3 0.1-0.1zm5.4 3.2c0.2 0.2 0.2 1.6 0.1 1.7-0.1 0-0.1-0.4-0.2-0.9 0-0.5 0-0.9 0.1-0.8zm0.3 2.7c0.1 0.4 0.1 0.7 0.1 0.8 0 0.1-0.2-0.1-0.2-0.5-0.1-0.4-0.1-0.7-0.1-0.8 0-0.1 0.2 0.1 0.2 0.5zm-1.8 4.3c0 0.1-0.1 0.3-0.2 0.3-0.1 0-0.1-0.1 0-0.2 0.1-0.2 0.2-0.2 0.2-0.1zm2-2.9c0.1 0.3 0.1 0.5 0.1 0.6-0.1 0.3-0.2 0.1-0.2-0.5l0-0.6zm0 0.9c0.2 0 0.2 2 0.1 2.3-0.1 0.2-0.1 0.4-0.1 0.5 0.1 0.2-0.2 2-0.3 2.1-0.3 0.1-0.8-0.4-0.6-0.7 0.4-0.7 0.8-2.6 0.7-3.2-0.1-0.6 0-1 0.2-0.9z" />
</svg>